# xmcd
#
# Track frame offsets:
#	150
#	29431
#	40793
#	63987
#	78405
#	90744
#	105316
#	125493
#	138806
#	153313
#	164643
#	178694
#	191199
#
# Disc length: 2940 seconds
#
# Revision: 1
# Processed by: cddbd v1.5.2PL0 Copyright (c) Steve Scherf et al.
# Submitted via: audiograbber 1.83.01
#
DISCID=a80b7a0d
DTITLE=Mark Sultan - $
DYEAR=2010
DGENRE=
TTITLE0=Icicles
TTITLE1=Don't Look Back
TTITLE2=Ten Of Hearts
TTITLE3=Status
TTITLE4=I Get Nothin' From My Girl
TTITLE5=Go Berserk
TTITLE6=I Am The End
TTITLE7=Misery's Upon Us
TTITLE8=I'll Be Lovin' You
TTITLE9=Waiting For Me
TTITLE10=Just To Hold You
TTITLE11=Catastrophe
TTITLE12=Nobody But You
EXTD=
EXTT0=
EXTT1=
EXTT2=
EXTT3=
EXTT4=
EXTT5=
EXTT6=
EXTT7=
EXTT8=
EXTT9=
EXTT10=
EXTT11=
EXTT12=
PLAYORDER=
